<svg id="visual" viewBox="0 0 3840 3840" width="3840" height="3840" xmlns="http://www.w3.org/2000/svg" xmlns:xlink="http://www.w3.org/1999/xlink" version="1.1"><rect x="0" y="0" width="3840" height="3840" fill="#96ccff"></rect><g fill="#16314a"><path d="M0 -65.1L14.6 -20.1L61.9 -20.1L23.7 7.7L38.3 52.7L0 24.9L-38.3 52.7L-23.7 7.7L-61.9 -20.1L-14.6 -20.1Z" transform="translate(57 3395)"></path><path d="M0 -4.7L1.1 -1.5L4.5 -1.5L1.7 0.6L2.8 3.8L0 1.8L-2.8 3.8L-1.7 0.6L-4.5 -1.5L-1.1 -1.5Z" transform="translate(2939 927)"></path><path d="M0 -39.6L8.9 -12.2L37.7 -12.2L14.4 4.7L23.3 32.1L0 15.1L-23.3 32.1L-14.4 4.7L-37.7 -12.2L-8.9 -12.2Z" transform="translate(903 2856)"></path><path d="M0 -52.9L11.9 -16.3L50.3 -16.3L19.2 6.2L31.1 42.8L0 20.2L-31.1 42.8L-19.2 6.2L-50.3 -16.3L-11.9 -16.3Z" transform="translate(2140 3544)"></path><path d="M0 -21.7L4.9 -6.7L20.6 -6.7L7.9 2.6L12.8 17.6L0 8.3L-12.8 17.6L-7.9 2.6L-20.6 -6.7L-4.9 -6.7Z" transform="translate(2973 738)"></path><path d="M0 -30.2L6.8 -9.3L28.7 -9.3L11 3.6L17.8 24.4L0 11.5L-17.8 24.4L-11 3.6L-28.7 -9.3L-6.8 -9.3Z" transform="translate(2634 721)"></path><path d="M0 -23.6L5.3 -7.3L22.4 -7.3L8.6 2.8L13.9 19.1L0 9L-13.9 19.1L-8.6 2.8L-22.4 -7.3L-5.3 -7.3Z" transform="translate(3798 2177)"></path><path d="M0 -28.3L6.4 -8.7L26.9 -8.7L10.3 3.3L16.6 22.9L0 10.8L-16.6 22.9L-10.3 3.3L-26.9 -8.7L-6.4 -8.7Z" transform="translate(1153 284)"></path><path d="M0 -55.7L12.5 -17.2L53 -17.2L20.2 6.6L32.7 45.1L0 21.3L-32.7 45.1L-20.2 6.6L-53 -17.2L-12.5 -17.2Z" transform="translate(220 1380)"></path><path d="M0 -47.2L10.6 -14.6L44.9 -14.6L17.1 5.6L27.7 38.2L0 18L-27.7 38.2L-17.1 5.6L-44.9 -14.6L-10.6 -14.6Z" transform="translate(339 3390)"></path><path d="M0 -8.5L1.9 -2.6L8.1 -2.6L3.1 1L5 6.9L0 3.2L-5 6.9L-3.1 1L-8.1 -2.6L-1.9 -2.6Z" transform="translate(3138 2144)"></path><path d="M0 -11.3L2.5 -3.5L10.8 -3.5L4.1 1.3L6.7 9.2L0 4.3L-6.7 9.2L-4.1 1.3L-10.8 -3.5L-2.5 -3.5Z" transform="translate(2991 3760)"></path><path d="M0 -11.3L2.5 -3.5L10.8 -3.5L4.1 1.3L6.7 9.2L0 4.3L-6.7 9.2L-4.1 1.3L-10.8 -3.5L-2.5 -3.5Z" transform="translate(3161 425)"></path><path d="M0 -31.1L7 -9.6L29.6 -9.6L11.3 3.7L18.3 25.2L0 11.9L-18.3 25.2L-11.3 3.7L-29.6 -9.6L-7 -9.6Z" transform="translate(426 598)"></path><path d="M0 -56.6L12.7 -17.5L53.9 -17.5L20.6 6.7L33.3 45.8L0 21.6L-33.3 45.8L-20.6 6.7L-53.9 -17.5L-12.7 -17.5Z" transform="translate(1361 1695)"></path><path d="M0 -15.1L3.4 -4.7L14.4 -4.7L5.5 1.8L8.9 12.2L0 5.8L-8.9 12.2L-5.5 1.8L-14.4 -4.7L-3.4 -4.7Z" transform="translate(2240 2957)"></path><path d="M0 -21.7L4.9 -6.7L20.6 -6.7L7.9 2.6L12.8 17.6L0 8.3L-12.8 17.6L-7.9 2.6L-20.6 -6.7L-4.9 -6.7Z" transform="translate(2712 2895)"></path><path d="M0 -43.4L9.7 -13.4L41.3 -13.4L15.8 5.1L25.5 35.1L0 16.6L-25.5 35.1L-15.8 5.1L-41.3 -13.4L-9.7 -13.4Z" transform="translate(567 865)"></path><path d="M0 -12.3L2.8 -3.8L11.7 -3.8L4.5 1.4L7.2 9.9L0 4.7L-7.2 9.9L-4.5 1.4L-11.7 -3.8L-2.8 -3.8Z" transform="translate(2571 3253)"></path><path d="M0 -42.5L9.5 -13.1L40.4 -13.1L15.4 5L25 34.4L0 16.2L-25 34.4L-15.4 5L-40.4 -13.1L-9.5 -13.1Z" transform="translate(292 3188)"></path><path d="M0 -35.9L8.1 -11.1L34.1 -11.1L13 4.2L21.1 29L0 13.7L-21.1 29L-13 4.2L-34.1 -11.1L-8.1 -11.1Z" transform="translate(1451 2538)"></path><path d="M0 -30.2L6.8 -9.3L28.7 -9.3L11 3.6L17.8 24.4L0 11.5L-17.8 24.4L-11 3.6L-28.7 -9.3L-6.8 -9.3Z" transform="translate(1609 1870)"></path><path d="M0 -10.4L2.3 -3.2L9.9 -3.2L3.8 1.2L6.1 8.4L0 4L-6.1 8.4L-3.8 1.2L-9.9 -3.2L-2.3 -3.2Z" transform="translate(64 3252)"></path><path d="M0 -5.7L1.3 -1.7L5.4 -1.7L2.1 0.7L3.3 4.6L0 2.2L-3.3 4.6L-2.1 0.7L-5.4 -1.7L-1.3 -1.7Z" transform="translate(3395 961)"></path><path d="M0 -41.5L9.3 -12.8L39.5 -12.8L15.1 4.9L24.4 33.6L0 15.9L-24.4 33.6L-15.1 4.9L-39.5 -12.8L-9.3 -12.8Z" transform="translate(3753 80)"></path><path d="M0 -32.1L7.2 -9.9L30.5 -9.9L11.7 3.8L18.9 26L0 12.3L-18.9 26L-11.7 3.8L-30.5 -9.9L-7.2 -9.9Z" transform="translate(2662 2109)"></path><path d="M0 -8.5L1.9 -2.6L8.1 -2.6L3.1 1L5 6.9L0 3.2L-5 6.9L-3.1 1L-8.1 -2.6L-1.9 -2.6Z" transform="translate(1683 2402)"></path><path d="M0 -56.6L12.7 -17.5L53.9 -17.5L20.6 6.7L33.3 45.8L0 21.6L-33.3 45.8L-20.6 6.7L-53.9 -17.5L-12.7 -17.5Z" transform="translate(186 3332)"></path><path d="M0 -33L7.4 -10.2L31.4 -10.2L12 3.9L19.4 26.7L0 12.6L-19.4 26.7L-12 3.9L-31.4 -10.2L-7.4 -10.2Z" transform="translate(1704 3117)"></path><path d="M0 -17L3.8 -5.2L16.2 -5.2L6.2 2L10 13.7L0 6.5L-10 13.7L-6.2 2L-16.2 -5.2L-3.8 -5.2Z" transform="translate(2946 1333)"></path><path d="M0 -48.1L10.8 -14.9L45.8 -14.9L17.5 5.7L28.3 38.9L0 18.4L-28.3 38.9L-17.5 5.7L-45.8 -14.9L-10.8 -14.9Z" transform="translate(1902 3582)"></path><path d="M0 -12.3L2.8 -3.8L11.7 -3.8L4.5 1.4L7.2 9.9L0 4.7L-7.2 9.9L-4.5 1.4L-11.7 -3.8L-2.8 -3.8Z" transform="translate(3554 1843)"></path><path d="M0 -15.1L3.4 -4.7L14.4 -4.7L5.5 1.8L8.9 12.2L0 5.8L-8.9 12.2L-5.5 1.8L-14.4 -4.7L-3.4 -4.7Z" transform="translate(1717 656)"></path><path d="M0 -50L11.2 -15.5L47.6 -15.5L18.2 5.9L29.4 40.5L0 19.1L-29.4 40.5L-18.2 5.9L-47.6 -15.5L-11.2 -15.5Z" transform="translate(655 214)"></path><path d="M0 -59.5L13.3 -18.4L56.6 -18.4L21.6 7L35 48.1L0 22.7L-35 48.1L-21.6 7L-56.6 -18.4L-13.3 -18.4Z" transform="translate(3324 3201)"></path><path d="M0 -40.6L9.1 -12.5L38.6 -12.5L14.7 4.8L23.9 32.8L0 15.5L-23.9 32.8L-14.7 4.8L-38.6 -12.5L-9.1 -12.5Z" transform="translate(1372 2230)"></path><path d="M0 -13.2L3 -4.1L12.6 -4.1L4.8 1.6L7.8 10.7L0 5L-7.8 10.7L-4.8 1.6L-12.6 -4.1L-3 -4.1Z" transform="translate(1055 2655)"></path><path d="M0 -10.4L2.3 -3.2L9.9 -3.2L3.8 1.2L6.1 8.4L0 4L-6.1 8.4L-3.8 1.2L-9.9 -3.2L-2.3 -3.2Z" transform="translate(3068 854)"></path><path d="M0 -17L3.8 -5.2L16.2 -5.2L6.2 2L10 13.7L0 6.5L-10 13.7L-6.2 2L-16.2 -5.2L-3.8 -5.2Z" transform="translate(3549 1698)"></path><path d="M0 -45.3L10.2 -14L43.1 -14L16.5 5.3L26.6 36.7L0 17.3L-26.6 36.7L-16.5 5.3L-43.1 -14L-10.2 -14Z" transform="translate(510 3402)"></path><path d="M0 -45.3L10.2 -14L43.1 -14L16.5 5.3L26.6 36.7L0 17.3L-26.6 36.7L-16.5 5.3L-43.1 -14L-10.2 -14Z" transform="translate(2611 1792)"></path><path d="M0 -34L7.6 -10.5L32.3 -10.5L12.3 4L20 27.5L0 13L-20 27.5L-12.3 4L-32.3 -10.5L-7.6 -10.5Z" transform="translate(1435 1918)"></path><path d="M0 -33L7.4 -10.2L31.4 -10.2L12 3.9L19.4 26.7L0 12.6L-19.4 26.7L-12 3.9L-31.4 -10.2L-7.4 -10.2Z" transform="translate(842 2294)"></path><path d="M0 -45.3L10.2 -14L43.1 -14L16.5 5.3L26.6 36.7L0 17.3L-26.6 36.7L-16.5 5.3L-43.1 -14L-10.2 -14Z" transform="translate(3531 259)"></path><path d="M0 -18.9L4.2 -5.8L18 -5.8L6.9 2.2L11.1 15.3L0 7.2L-11.1 15.3L-6.9 2.2L-18 -5.8L-4.2 -5.8Z" transform="translate(585 1850)"></path><path d="M0 -58.5L13.1 -18.1L55.7 -18.1L21.3 6.9L34.4 47.3L0 22.4L-34.4 47.3L-21.3 6.9L-55.7 -18.1L-13.1 -18.1Z" transform="translate(773 2495)"></path><path d="M0 -39.6L8.9 -12.2L37.7 -12.2L14.4 4.7L23.3 32.1L0 15.1L-23.3 32.1L-14.4 4.7L-37.7 -12.2L-8.9 -12.2Z" transform="translate(1526 325)"></path><path d="M0 -55.7L12.5 -17.2L53 -17.2L20.2 6.6L32.7 45.1L0 21.3L-32.7 45.1L-20.2 6.6L-53 -17.2L-12.5 -17.2Z" transform="translate(1531 1098)"></path><path d="M0 -4.7L1.1 -1.5L4.5 -1.5L1.7 0.6L2.8 3.8L0 1.8L-2.8 3.8L-1.7 0.6L-4.5 -1.5L-1.1 -1.5Z" transform="translate(2508 19)"></path><path d="M0 -50L11.2 -15.5L47.6 -15.5L18.2 5.9L29.4 40.5L0 19.1L-29.4 40.5L-18.2 5.9L-47.6 -15.5L-11.2 -15.5Z" transform="translate(498 2353)"></path><path d="M0 -34L7.6 -10.5L32.3 -10.5L12.3 4L20 27.5L0 13L-20 27.5L-12.3 4L-32.3 -10.5L-7.6 -10.5Z" transform="translate(2151 2451)"></path><path d="M0 -37.8L8.5 -11.7L35.9 -11.7L13.7 4.5L22.2 30.5L0 14.4L-22.2 30.5L-13.7 4.5L-35.9 -11.7L-8.5 -11.7Z" transform="translate(3194 613)"></path><path d="M0 -56.6L12.7 -17.5L53.9 -17.5L20.6 6.7L33.3 45.8L0 21.6L-33.3 45.8L-20.6 6.7L-53.9 -17.5L-12.7 -17.5Z" transform="translate(3641 1991)"></path><path d="M0 -58.5L13.1 -18.1L55.7 -18.1L21.3 6.9L34.4 47.3L0 22.4L-34.4 47.3L-21.3 6.9L-55.7 -18.1L-13.1 -18.1Z" transform="translate(2357 3817)"></path><path d="M0 -13.2L3 -4.1L12.6 -4.1L4.8 1.6L7.8 10.7L0 5L-7.8 10.7L-4.8 1.6L-12.6 -4.1L-3 -4.1Z" transform="translate(2565 2377)"></path><path d="M0 -5.7L1.3 -1.7L5.4 -1.7L2.1 0.7L3.3 4.6L0 2.2L-3.3 4.6L-2.1 0.7L-5.4 -1.7L-1.3 -1.7Z" transform="translate(2597 527)"></path><path d="M0 -51L11.4 -15.7L48.5 -15.7L18.5 6L30 41.2L0 19.5L-30 41.2L-18.5 6L-48.5 -15.7L-11.4 -15.7Z" transform="translate(3717 2660)"></path><path d="M0 -63.2L14.2 -19.5L60.1 -19.5L23 7.5L37.2 51.2L0 24.2L-37.2 51.2L-23 7.5L-60.1 -19.5L-14.2 -19.5Z" transform="translate(1174 1551)"></path><path d="M0 -25.5L5.7 -7.9L24.2 -7.9L9.3 3L15 20.6L0 9.7L-15 20.6L-9.3 3L-24.2 -7.9L-5.7 -7.9Z" transform="translate(1306 2990)"></path><path d="M0 -51L11.4 -15.7L48.5 -15.7L18.5 6L30 41.2L0 19.5L-30 41.2L-18.5 6L-48.5 -15.7L-11.4 -15.7Z" transform="translate(493 270)"></path><path d="M0 -46.2L10.4 -14.3L44 -14.3L16.8 5.5L27.2 37.4L0 17.7L-27.2 37.4L-16.8 5.5L-44 -14.3L-10.4 -14.3Z" transform="translate(1404 3179)"></path><path d="M0 -53.8L12.1 -16.6L51.2 -16.6L19.5 6.4L31.6 43.5L0 20.5L-31.6 43.5L-19.5 6.4L-51.2 -16.6L-12.1 -16.6Z" transform="translate(2535 231)"></path><path d="M0 -55.7L12.5 -17.2L53 -17.2L20.2 6.6L32.7 45.1L0 21.3L-32.7 45.1L-20.2 6.6L-53 -17.2L-12.5 -17.2Z" transform="translate(136 3544)"></path><path d="M0 -27.4L6.1 -8.5L26 -8.5L9.9 3.2L16.1 22.1L0 10.5L-16.1 22.1L-9.9 3.2L-26 -8.5L-6.1 -8.5Z" transform="translate(2586 2226)"></path><path d="M0 -56.6L12.7 -17.5L53.9 -17.5L20.6 6.7L33.3 45.8L0 21.6L-33.3 45.8L-20.6 6.7L-53.9 -17.5L-12.7 -17.5Z" transform="translate(1741 3836)"></path><path d="M0 -51.9L11.7 -16L49.4 -16L18.9 6.1L30.5 42L0 19.8L-30.5 42L-18.9 6.1L-49.4 -16L-11.7 -16Z" transform="translate(51 1405)"></path><path d="M0 -33L7.4 -10.2L31.4 -10.2L12 3.9L19.4 26.7L0 12.6L-19.4 26.7L-12 3.9L-31.4 -10.2L-7.4 -10.2Z" transform="translate(1762 1210)"></path><path d="M0 -31.1L7 -9.6L29.6 -9.6L11.3 3.7L18.3 25.2L0 11.9L-18.3 25.2L-11.3 3.7L-29.6 -9.6L-7 -9.6Z" transform="translate(3170 1683)"></path><path d="M0 -46.2L10.4 -14.3L44 -14.3L16.8 5.5L27.2 37.4L0 17.7L-27.2 37.4L-16.8 5.5L-44 -14.3L-10.4 -14.3Z" transform="translate(2316 1422)"></path><path d="M0 -18.9L4.2 -5.8L18 -5.8L6.9 2.2L11.1 15.3L0 7.2L-11.1 15.3L-6.9 2.2L-18 -5.8L-4.2 -5.8Z" transform="translate(2648 981)"></path><path d="M0 -35.9L8.1 -11.1L34.1 -11.1L13 4.2L21.1 29L0 13.7L-21.1 29L-13 4.2L-34.1 -11.1L-8.1 -11.1Z" transform="translate(1172 2863)"></path><path d="M0 -3.8L0.8 -1.2L3.6 -1.2L1.4 0.4L2.2 3.1L0 1.4L-2.2 3.1L-1.4 0.4L-3.6 -1.2L-0.8 -1.2Z" transform="translate(3138 97)"></path><path d="M0 -41.5L9.3 -12.8L39.5 -12.8L15.1 4.9L24.4 33.6L0 15.9L-24.4 33.6L-15.1 4.9L-39.5 -12.8L-9.3 -12.8Z" transform="translate(1568 1322)"></path><path d="M0 -41.5L9.3 -12.8L39.5 -12.8L15.1 4.9L24.4 33.6L0 15.9L-24.4 33.6L-15.1 4.9L-39.5 -12.8L-9.3 -12.8Z" transform="translate(3507 1548)"></path><path d="M0 -38.7L8.7 -12L36.8 -12L14.1 4.6L22.7 31.3L0 14.8L-22.7 31.3L-14.1 4.6L-36.8 -12L-8.7 -12Z" transform="translate(3345 162)"></path><path d="M0 -12.3L2.8 -3.8L11.7 -3.8L4.5 1.4L7.2 9.9L0 4.7L-7.2 9.9L-4.5 1.4L-11.7 -3.8L-2.8 -3.8Z" transform="translate(2166 1435)"></path><path d="M0 -19.8L4.4 -6.1L18.9 -6.1L7.2 2.3L11.7 16L0 7.6L-11.7 16L-7.2 2.3L-18.9 -6.1L-4.4 -6.1Z" transform="translate(2873 1695)"></path><path d="M0 -9.4L2.1 -2.9L9 -2.9L3.4 1.1L5.5 7.6L0 3.6L-5.5 7.6L-3.4 1.1L-9 -2.9L-2.1 -2.9Z" transform="translate(2907 399)"></path><path d="M0 -51L11.4 -15.7L48.5 -15.7L18.5 6L30 41.2L0 19.5L-30 41.2L-18.5 6L-48.5 -15.7L-11.4 -15.7Z" transform="translate(3110 1820)"></path><path d="M0 -18.9L4.2 -5.8L18 -5.8L6.9 2.2L11.1 15.3L0 7.2L-11.1 15.3L-6.9 2.2L-18 -5.8L-4.2 -5.8Z" transform="translate(470 1394)"></path><path d="M0 -29.3L6.6 -9L27.8 -9L10.6 3.5L17.2 23.7L0 11.2L-17.2 23.7L-10.6 3.5L-27.8 -9L-6.6 -9Z" transform="translate(26 1870)"></path><path d="M0 -10.4L2.3 -3.2L9.9 -3.2L3.8 1.2L6.1 8.4L0 4L-6.1 8.4L-3.8 1.2L-9.9 -3.2L-2.3 -3.2Z" transform="translate(1292 1025)"></path><path d="M0 -28.3L6.4 -8.7L26.9 -8.7L10.3 3.3L16.6 22.9L0 10.8L-16.6 22.9L-10.3 3.3L-26.9 -8.7L-6.4 -8.7Z" transform="translate(93 776)"></path><path d="M0 -21.7L4.9 -6.7L20.6 -6.7L7.9 2.6L12.8 17.6L0 8.3L-12.8 17.6L-7.9 2.6L-20.6 -6.7L-4.9 -6.7Z" transform="translate(869 1447)"></path><path d="M0 -26.4L5.9 -8.2L25.1 -8.2L9.6 3.1L15.5 21.4L0 10.1L-15.5 21.4L-9.6 3.1L-25.1 -8.2L-5.9 -8.2Z" transform="translate(3416 3540)"></path><path d="M0 -5.7L1.3 -1.7L5.4 -1.7L2.1 0.7L3.3 4.6L0 2.2L-3.3 4.6L-2.1 0.7L-5.4 -1.7L-1.3 -1.7Z" transform="translate(140 2653)"></path><path d="M0 -60.4L13.6 -18.7L57.4 -18.7L21.9 7.1L35.5 48.9L0 23.1L-35.5 48.9L-21.9 7.1L-57.4 -18.7L-13.6 -18.7Z" transform="translate(770 908)"></path><path d="M0 -6.6L1.5 -2L6.3 -2L2.4 0.8L3.9 5.3L0 2.5L-3.9 5.3L-2.4 0.8L-6.3 -2L-1.5 -2Z" transform="translate(2880 2060)"></path><path d="M0 -31.1L7 -9.6L29.6 -9.6L11.3 3.7L18.3 25.2L0 11.9L-18.3 25.2L-11.3 3.7L-29.6 -9.6L-7 -9.6Z" transform="translate(951 3256)"></path><path d="M0 -62.3L14 -19.2L59.2 -19.2L22.6 7.4L36.6 50.4L0 23.8L-36.6 50.4L-22.6 7.4L-59.2 -19.2L-14 -19.2Z" transform="translate(1143 2545)"></path><path d="M0 -37.8L8.5 -11.7L35.9 -11.7L13.7 4.5L22.2 30.5L0 14.4L-22.2 30.5L-13.7 4.5L-35.9 -11.7L-8.5 -11.7Z" transform="translate(285 2053)"></path><path d="M0 -51.9L11.7 -16L49.4 -16L18.9 6.1L30.5 42L0 19.8L-30.5 42L-18.9 6.1L-49.4 -16L-11.7 -16Z" transform="translate(2011 2969)"></path><path d="M0 -46.2L10.4 -14.3L44 -14.3L16.8 5.5L27.2 37.4L0 17.7L-27.2 37.4L-16.8 5.5L-44 -14.3L-10.4 -14.3Z" transform="translate(1738 3426)"></path><path d="M0 -30.2L6.8 -9.3L28.7 -9.3L11 3.6L17.8 24.4L0 11.5L-17.8 24.4L-11 3.6L-28.7 -9.3L-6.8 -9.3Z" transform="translate(4 358)"></path><path d="M0 -37.8L8.5 -11.7L35.9 -11.7L13.7 4.5L22.2 30.5L0 14.4L-22.2 30.5L-13.7 4.5L-35.9 -11.7L-8.5 -11.7Z" transform="translate(3379 1715)"></path><path d="M0 -56.6L12.7 -17.5L53.9 -17.5L20.6 6.7L33.3 45.8L0 21.6L-33.3 45.8L-20.6 6.7L-53.9 -17.5L-12.7 -17.5Z" transform="translate(1590 2527)"></path><path d="M0 -5.7L1.3 -1.7L5.4 -1.7L2.1 0.7L3.3 4.6L0 2.2L-3.3 4.6L-2.1 0.7L-5.4 -1.7L-1.3 -1.7Z" transform="translate(533 3111)"></path><path d="M0 -8.5L1.9 -2.6L8.1 -2.6L3.1 1L5 6.9L0 3.2L-5 6.9L-3.1 1L-8.1 -2.6L-1.9 -2.6Z" transform="translate(2848 3575)"></path></g></svg>